<svg width="175" height="139" viewBox="0 0 175 139" fill="none" xmlns="http://www.w3.org/2000/svg">
<path fill-rule="evenodd" clip-rule="evenodd" d="M1.52588e-05 117.278C26.2453 105.219 39.3677 91.049 39.3677 74.7686C28.1812 73.5627 18.9309 69.2917 11.6167 61.9554C4.30244 54.6192 0.645401 46.1275 0.645401 36.4798C0.645401 26.2293 4.1949 17.5867 11.294 10.552C18.3931 3.51729 27.3207 -1.52588e-05 38.0769 -1.52588e-05C50.1239 -1.52588e-05 60.5573 4.57248 69.3774 13.7176C78.1976 22.8627 82.6076 33.9674 82.6076 47.0319C82.6076 86.2253 59.1593 116.876 12.2621 138.985L1.52588e-05 117.278ZM92.6206 117.278C119.081 105.219 132.311 91.049 132.311 74.7686C120.909 73.5627 111.552 69.2917 104.237 61.9554C96.923 54.6192 93.266 46.1275 93.266 36.4798C93.266 26.2293 96.8693 17.5867 104.076 10.552C111.283 3.51729 120.264 -1.52588e-05 131.02 -1.52588e-05C143.067 -1.52588e-05 153.447 4.57248 162.159 13.7176C170.872 22.8627 175.228 33.9674 175.228 47.0319C175.228 86.2253 151.887 116.876 105.205 138.985L92.6206 117.278Z" fill="#7EA6E8"/>
</svg>
