<svg width="50" height="50" viewBox="0 0 50 50" fill="none" xmlns="http://www.w3.org/2000/svg">
<path d="M39.5833 12.5H10.4166C6.96486 12.5 4.16663 15.2982 4.16663 18.75V24.4185L18.4112 29.1667H31.5887L45.8333 24.4185V18.75C45.8333 15.2982 43.0351 12.5 39.5833 12.5Z" fill="#7EA6E8"/>
<path d="M20.8333 12.5V10.4167H29.1666V12.5H33.3333V10.4167C33.3307 8.11656 31.4667 6.25263 29.1666 6.25H20.8333C18.5332 6.25263 16.6693 8.11656 16.6666 10.4167V12.5H20.8333ZM18.4112 29.1667L4.16663 24.4184V37.5C4.1704 40.9502 6.9664 43.7462 10.4166 43.75H39.5833C43.0335 43.7462 45.8295 40.9502 45.8333 37.5V24.4184L31.5887 29.1667H18.4112Z" fill="#355D93"/>
</svg>
