<svg width="64" height="64" viewBox="0 0 64 64" fill="none" xmlns="http://www.w3.org/2000/svg">
<path d="M20.0028 16.3923L14.3275 12.2778C13.9009 11.9684 13.3032 12.0621 12.9928 12.4906L0.182039 30.1582C-0.12831 30.5858 -0.0317627 31.1831 0.3949 31.4934L6.06912 35.6088C6.49672 35.9182 7.09389 35.8226 7.4033 35.395L20.2142 17.7276C20.5245 17.3 20.4293 16.7017 20.0028 16.3923ZM16.2105 18.3652C15.6942 19.0769 14.698 19.2363 13.9858 18.7197C13.2732 18.204 13.1144 17.2062 13.6308 16.4956C14.1469 15.7829 15.1433 15.6236 15.8555 16.1403C16.5685 16.6568 16.7261 17.6525 16.2105 18.3652Z" fill="#203C60"/>
<path d="M41.3675 21.8036C39.6755 21.5222 35.7809 21.4913 32.5018 22.2059C32.2918 22.0671 32.0812 21.9236 31.8736 21.796C31.2397 21.4078 30.6181 21.0796 30.0006 20.8322C29.402 20.594 28.8051 20.43 28.1806 20.397V20.3943C27.2453 20.3184 26.3372 20.2846 25.5023 20.2846C24.2312 20.2865 23.1469 20.3568 22.3433 20.4909H22.3465C22.2354 20.5078 22.1136 20.5182 21.9813 20.5182C21.2869 20.5265 20.3258 20.1965 19.4537 19.7201C18.8658 19.4051 18.1373 19.5719 17.7453 20.1121L8.17468 33.3105C7.84873 33.7596 7.83703 34.3682 8.14416 34.8315C8.387 35.1953 8.59005 35.5731 8.72411 35.951C8.9168 36.4846 9.27796 36.8616 9.60001 37.3333C9.96326 37.8624 10.7686 38.4883 11.2331 38.9333C15.8514 42.7415 21.655 47.5516 27.2 52.2667L28.0769 53.0971C28.2199 53.2097 28.3503 53.311 28.4567 53.3935C28.5438 53.4591 28.618 53.5155 28.6859 53.5643L28.7868 53.6356L28.9297 53.7238C29.4665 54.0181 29.9799 54.1457 30.3882 54.2357C30.5916 54.2779 30.766 54.3069 30.8954 54.3247L31.053 54.3454L31.1022 54.3501L31.1209 54.352L31.1326 54.3539L31.1452 54.3548L31.1621 54.3558C31.1776 54.3558 31.1701 54.3576 31.2516 54.3595L31.3477 54.3558C32.2419 54.2901 33.0885 53.9825 33.7834 53.4519C34.0599 53.24 34.3019 52.9839 34.5186 52.7037C34.9466 52.8425 35.3999 52.9249 35.8716 52.9249C37.7848 52.9241 39.3949 51.7041 40.0184 50.007C40.0878 50.0023 40.1568 49.9994 40.2251 49.9817C40.4679 50.0258 40.7141 50.0577 40.9691 50.0577C42.8675 50.0558 44.1661 48.6081 44.8 46.9333C44.2667 46.4 44.8043 46.9296 44.8 46.9333L45.2696 47.1903C47.722 47.1903 49.7071 45.2033 49.708 42.7524C49.7095 42.0716 49.6153 41.3187 49.356 40.5357C51.0391 39.0486 53.5057 36.7513 53.9515 35.5042C54.1663 34.9041 55.3735 33.4649 55.7242 32.9744L46.2281 19.8781C45.0169 20.5639 42.6666 22.0211 41.3675 21.8036Z" fill="#355D93"/>
<path d="M42.2088 31.256L40.6163 31.0876C38.5268 30.7484 32.6181 29.8667 30.4001 29.8667C30.3021 29.8667 30.2246 29.8677 30.1667 29.8707C30.0775 29.9241 29.9745 29.9859 29.8734 30.0475C28.2997 31.0084 24.6119 33.258 20.3172 33.258C19.8464 33.258 19.3749 33.2302 18.916 33.1768C18.2199 33.0956 17.6079 32.9702 17.0667 32.812C17.5794 33.0473 18.052 33.3845 18.4561 33.8171C19.0915 34.4975 19.4846 35.3319 19.6406 36.2045C20.0103 36.1007 20.3936 36.0431 20.7858 36.0431C21.9879 36.0431 23.1127 36.5384 23.9519 37.4387C24.7795 38.3246 25.2276 39.4962 25.2148 40.7356C25.2148 40.7478 25.2129 40.7603 25.2129 40.7725C26.4101 40.7766 27.53 41.2721 28.3673 42.1681C29.1948 43.0541 29.643 44.2255 29.6302 45.465C29.6262 45.8926 29.5636 46.3097 29.4528 46.7107C30.3019 46.8966 31.0795 47.3395 31.7012 48.0055C33.4092 49.8359 33.047 51.9763 31.3016 53.7667L27.7333 52.8C28.2666 53.8667 30.3961 54.9333 30.4 54.9333C31.8688 54.8223 33.4769 54.4061 33.823 52.9754C34.4211 53.4697 35.1741 53.7667 35.995 53.7667C37.9345 53.7667 39.5072 52.1193 39.5072 50.0855C39.5072 49.8718 39.4866 49.6642 39.4522 49.4605C40.07 50.0248 40.875 50.369 41.7585 50.369C43.6981 50.369 45.2709 48.7205 45.2709 46.6878C45.6866 46.8698 46.1425 46.9715 46.6211 46.9715C48.5615 46.9715 50.1333 45.323 50.1333 43.2903C50.1333 41.7466 49.4136 40.7416 47.7016 38.6657L42.2088 31.256Z" fill="#355D93"/>
<path d="M63.8172 30.1581L51.007 12.4906C50.6971 12.0621 50.0998 11.9684 49.6721 12.2778L43.9979 16.3923C43.5703 16.7017 43.4751 17.3 43.7855 17.7276L56.5958 35.395C56.9056 35.8226 57.5029 35.9182 57.9305 35.6088L63.6057 31.4934C64.0325 31.1828 64.1281 30.5855 63.8172 30.1581ZM59.4585 31.7454C58.7468 32.2611 57.7501 32.1018 57.2333 31.39C56.7171 30.6784 56.8762 29.6826 57.5887 29.166C58.3009 28.6493 59.2967 28.8087 59.8133 29.5193C60.3296 30.232 60.1706 31.2288 59.4585 31.7454Z" fill="#203C60"/>
<path d="M41.6266 21.3421C39.5217 20.9893 34.0964 21.0126 30.4962 22.3316C26.8952 23.6505 20.3471 27.7733 18.383 28.4342C16.4189 29.0932 16.3807 31.7327 20.7999 32.2267C21.6329 32.3198 23.4666 32.5333 25.0666 32C26.6666 31.4667 29.2232 30.1902 29.8666 29.8667C30.8487 29.3711 40.4804 30.413 40.4804 30.413L43.4674 31.1546L49.5999 41.0667C50.8083 40.0091 53.9525 37.2311 54.5577 35.5252C54.7786 34.904 55.1067 34.3329 55.4666 33.8256L50.6666 27.2L45.7088 20.2667C44.4639 20.9776 42.9615 21.5666 41.6266 21.3421Z" fill="#7EA6E8"/>
<path d="M17.7505 37.9088C17.0107 37.1533 15.7992 37.14 15.0437 37.879L12.3087 40.556C11.5532 41.295 11.54 42.5065 12.279 43.262C13.0187 44.0175 14.2302 44.0308 14.9857 43.2909L17.7215 40.6146C18.4761 39.8758 18.4893 38.6643 17.7505 37.9088Z" fill="#7EA6E8"/>
<path d="M22.8429 40.1313C21.9992 39.2587 20.6162 39.2434 19.7537 40.0968L15.5905 44.2135C14.727 45.0669 14.7129 46.4646 15.5564 47.3354C16.4 48.208 17.7841 48.2233 18.6465 47.3698L22.8098 43.253C23.6722 42.4006 23.6874 41.0029 22.8429 40.1313Z" fill="#7EA6E8"/>
<path d="M26.1141 44.6331C25.3751 43.8777 24.1636 43.8635 23.4081 44.6034L19.7612 48.1725C19.0057 48.9114 18.9925 50.1229 19.7315 50.8793C20.4705 51.634 21.682 51.6473 22.4383 50.9074L26.0852 47.3392C26.8407 46.5993 26.854 45.3878 26.1141 44.6331Z" fill="#7EA6E8"/>
<path d="M28.8755 48.5757C28.1365 47.8202 26.925 47.8062 26.1695 48.546L24.042 50.6281C23.2865 51.367 23.2732 52.5785 24.0122 53.3341C24.752 54.0896 25.9635 54.1021 26.719 53.3638L28.8465 51.2818C29.6021 50.5428 29.6145 49.3313 28.8755 48.5757Z" fill="#7EA6E8"/>
</svg>
