<svg width="62" height="38" viewBox="0 0 62 38" fill="none" xmlns="http://www.w3.org/2000/svg">
<g clip-path="url(#clip0_524_517)">
<path d="M42.5217 11.2255C42.5217 11.2255 27.4795 0.72277 24.622 0.450085C21.7631 0.180331 18.7722 1.36783 18.7722 1.36783L30.6914 14.5198L42.5217 11.2255Z" fill="#4B81C9"/>
<path d="M0.114868 7.74074L9.06899 20.922L17.2467 14.8188L4.42042 6.27469L0.114868 7.74074Z" fill="#355D93"/>
<path d="M13.7362 15.4859C13.7362 15.4859 38.6969 6.28789 45.5485 4.10347C53.7707 1.48511 61.3643 5.03441 61.8293 6.55471C62.2555 7.95185 60.0712 10.2242 51.2807 13.0273C42.4901 15.8289 24.9507 22.6637 24.9507 22.6637C24.9507 22.6637 12.3369 26.71 1.55005 20.9352C9.18523 17.2217 13.7362 15.4859 13.7362 15.4859Z" fill="#7EA6E8"/>
<path d="M43.4574 15.8949C43.1043 17.9356 35.2596 33.2163 32.9073 34.8993C30.5565 36.5809 27.3833 37.0617 27.3833 37.0617C31.0301 21.9042 31.0861 21.916 31.5827 19.0191C31.9343 16.9768 43.8104 13.8542 43.4574 15.8949Z" fill="#4B81C9"/>
<path d="M59.3836 4.73533C58.2742 4.23395 56.8276 3.7824 55.1757 3.49066L55.8775 5.83341L59.3836 4.73533ZM50.9232 4.31604L53.6687 3.45694L54.5097 6.26296L51.7642 7.12206L50.9232 4.31604Z" fill="#355D93"/>
<path d="M25.3252 16.1881C25.3252 16.5769 25.4764 16.9498 25.7456 17.2248C26.0147 17.4997 26.3797 17.6542 26.7604 17.6542C27.141 17.6542 27.5061 17.4997 27.7752 17.2248C28.0444 16.9498 28.1956 16.5769 28.1956 16.1881C28.1956 15.7993 28.0444 15.4264 27.7752 15.1515C27.5061 14.8765 27.141 14.7221 26.7604 14.7221C26.3797 14.7221 26.0147 14.8765 25.7456 15.1515C25.4764 15.4264 25.3252 15.7993 25.3252 16.1881Z" fill="#355D93"/>
<path d="M30.7473 14.2661C30.7473 14.6549 30.8985 15.0278 31.1677 15.3028C31.4368 15.5777 31.8019 15.7322 32.1825 15.7322C32.5631 15.7322 32.9282 15.5777 33.1973 15.3028C33.4665 15.0278 33.6177 14.6549 33.6177 14.2661C33.6177 13.8773 33.4665 13.5044 33.1973 13.2295C32.9282 12.9545 32.5631 12.8001 32.1825 12.8001C31.8019 12.8001 31.4368 12.9545 31.1677 13.2295C30.8985 13.5044 30.7473 13.8773 30.7473 14.2661Z" fill="#355D93"/>
<path d="M38.9609 11.8603C39.0862 12.2276 39.0638 12.6306 38.8986 12.981C38.7334 13.3314 38.4389 13.6006 38.0797 13.7295C37.7192 13.8559 37.3244 13.8314 36.9815 13.6614C36.6387 13.4914 36.3756 13.1896 36.2499 12.8221C36.126 12.4548 36.1495 12.0523 36.3151 11.7027C36.4808 11.353 36.7751 11.0845 37.1339 10.9558C37.4937 10.8289 37.8879 10.8529 38.2304 11.0225C38.5728 11.192 38.8355 11.4933 38.9609 11.8603Z" fill="#355D93"/>
<path d="M41.5959 10.4192C41.5959 10.6117 41.6331 10.8024 41.7052 10.9802C41.7773 11.1581 41.883 11.3197 42.0163 11.4559C42.1496 11.592 42.3078 11.7 42.4819 11.7737C42.656 11.8473 42.8427 11.8853 43.0311 11.8853C43.2196 11.8853 43.4062 11.8473 43.5804 11.7737C43.7545 11.7 43.9127 11.592 44.046 11.4559C44.1792 11.3197 44.2849 11.1581 44.3571 10.9802C44.4292 10.8024 44.4663 10.6117 44.4663 10.4192C44.4663 10.2267 44.4292 10.036 44.3571 9.85817C44.2849 9.6803 44.1792 9.51869 44.046 9.38255C43.9127 9.24642 43.7545 9.13843 43.5804 9.06475C43.4062 8.99108 43.2196 8.95316 43.0311 8.95316C42.8427 8.95316 42.656 8.99108 42.4819 9.06475C42.3078 9.13843 42.1496 9.24642 42.0163 9.38255C41.883 9.51869 41.7773 9.6803 41.7052 9.85817C41.6331 10.036 41.5959 10.2267 41.5959 10.4192Z" fill="#355D93"/>
</g>
<defs>
<clipPath id="clip0_524_517">
<rect width="62" height="38" fill="white"/>
</clipPath>
</defs>
</svg>
