<svg width="24" height="24" viewBox="0 0 24 24" fill="none" xmlns="http://www.w3.org/2000/svg">
<path d="M12.8711 6.32583C14.071 6.52693 15.1609 7.09365 16.0311 7.96202C16.9012 8.83038 17.4645 9.91812 17.6706 11.1156M13.0543 2.3999C15.1884 2.76096 17.1348 3.771 18.6827 5.31121C20.2307 6.85598 21.2382 8.79838 21.6 10.9282M19.9329 19.4016C19.9329 19.4016 18.7743 20.5396 18.4903 20.8732C18.0278 21.3668 17.4828 21.5999 16.7684 21.5999C16.6997 21.5999 16.6264 21.5999 16.5577 21.5953C15.1975 21.5085 13.9335 20.9783 12.9855 20.5259C10.3934 19.2736 8.11733 17.4957 6.22591 15.2426C4.66424 13.3641 3.62007 11.6274 2.92853 9.76272C2.50262 8.6247 2.34691 7.73806 2.41561 6.90168C2.4614 6.36695 2.66749 5.92363 3.0476 5.54429L4.60928 3.98581C4.83369 3.77557 5.07183 3.66131 5.30539 3.66131C5.59391 3.66131 5.82748 3.83499 5.97403 3.98124C5.97861 3.98581 5.98319 3.99038 5.98777 3.99495C6.26713 4.25546 6.53275 4.52511 6.81211 4.81304C6.95408 4.95929 7.10064 5.10554 7.24719 5.25636L8.49744 6.50407C8.98289 6.98852 8.98289 7.43641 8.49744 7.92087C8.36463 8.05341 8.2364 8.18595 8.10359 8.31392C7.71889 8.70697 8.02109 8.40539 7.62266 8.76187C7.6135 8.77101 7.60434 8.77558 7.59976 8.78472C7.20591 9.17777 7.27918 9.56168 7.36162 9.82219C7.3662 9.8359 7.37078 9.84961 7.37536 9.86332C7.70052 10.6494 8.15848 11.3898 8.8546 12.2719L8.85918 12.2765C10.1232 13.8304 11.4559 15.0415 12.9259 15.9693C13.1137 16.0881 13.3061 16.1841 13.4893 16.2755C13.6541 16.3578 13.8098 16.4355 13.9426 16.5177C13.961 16.5269 13.9793 16.5406 13.9976 16.5497C14.1533 16.6274 14.2999 16.664 14.451 16.664C14.8311 16.664 15.0692 16.4263 15.1471 16.3486L16.0448 15.4528C16.2005 15.2974 16.4478 15.11 16.7363 15.11C17.0203 15.11 17.2538 15.2883 17.3958 15.4436C17.4004 15.4482 17.4004 15.4482 17.405 15.4528L19.9284 17.971C20.4001 18.4372 19.9329 19.4016 19.9329 19.4016Z" stroke="#FBFCFE" stroke-width="2" stroke-linecap="round" stroke-linejoin="round"/>
</svg>
